<?xml version="1.0" encoding="UTF-8" standalone="no"?>
<svg version="1.1" xmlns="http://www.w3.org/2000/svg"
    xmlns:xlink="http://www.w3.org/1999/xlink" xml:space="preserve"
    xmlns:serif="http://www.serif.com/"
    preserveAspectRatio="xMidYMid meet"
    style="fill-rule:evenodd;clip-rule:evenodd;stroke-linejoin:round;stroke-miterlimit:2;">
    <g id="elephant">
        <path id="path1623" d="M938.128,446.609c-57.077,-0 -109.2,25.727 -148.926,68.142c-45.572,45.281 -51.417,35.13 -97.565,34.725c-159.872,-0 -289.474,130.164 -289.475,290.73c0.123,64.816 21.794,127.377 61.03,178.009c20.282,26.113 20.483,26.17 -10.107,32.278c-12.098,2.421 -25.174,5.165 -38.87,7.851c-61.483,12.059 -117.98,-1.873 -118.388,18.586c-0.369,18.468 32.624,51.769 132.65,54.128c25.158,1.404 32.796,-6.762 19.257,17.637c-122.541,220.146 -327.577,13.579 -296.81,-232.36c3.872,-23.517 16.384,-17.835 23.751,-39.181c10.892,-33.949 -57.401,-24.525 -57.401,-24.525c-0,0 -48.571,-49.926 -76.873,-22.331c-19.463,18.976 -8.177,50.315 -8.177,50.315c-5.988,643.248 477.121,601.495 634.509,257.532c3.281,-6.562 3.35,-8.263 9.67,-7.812c4.003,0.266 8.012,0.446 12.024,0.545c6.463,0.154 6.191,0.119 6.683,7.102l24.885,353.263c2.354,33.41 24.907,60.481 55.85,60.481l110.066,0c30.943,0 55.855,-26.973 55.855,-60.481l0,-53.491c-0.195,-62.129 2.296,-66.022 6.601,-4.908l3.741,53.063c2.353,33.41 24.907,60.481 55.85,60.481l110.066,0c30.943,0 56.469,-26.979 55.855,-60.481l-2.671,-145.569c0.346,-25.182 -4.665,-23.701 14.16,-23.202c3.984,-0.094 7.965,-0.192 11.951,-0.301c19.07,-0.687 16.128,-3.271 17.525,16.567l5.463,151.552c1.206,33.471 24.907,60.481 55.85,60.481l110.066,-0c30.943,-0 55.855,-26.974 55.855,-60.481l0,-54.824c-0.318,-58.39 5.131,-50.021 11.669,6.737l6.742,58.526c3.833,33.272 27.569,59.318 58.482,57.946l109.954,-4.883c30.912,-1.373 54.602,-29.424 53.116,-62.899l-8.853,-199.464c-4.004,-69.1 2.382,-112.065 13.82,-167.083c4.865,-23.6 9.111,-49.024 12.272,-78.8c24.687,16.863 43.271,28.09 59.449,35.932c37.457,21.286 30.09,32.421 46.842,58.423c40.325,62.2 112.55,64.776 148.264,61.712c31.932,-2.487 11.803,-8.595 0.019,-17.511c-15.266,-12.283 -34.967,-32.153 -45.509,-58.832c-6.285,-15.909 -22.453,-45.761 -50.266,-61.658c-24.423,-13.054 -35.328,-3.185 -62.096,-25.065c-16.018,-13.114 -33.863,-28.613 -50.159,-47.241c-46.24,-46.941 -62.56,-112.542 -103.937,-165.386c-106.208,-125.245 -259.376,-139.579 -415.228,-139.717c-8.486,-0.01 -16.969,0.028 -25.454,0.093c-30.971,0.392 -25.86,-4.417 -24.54,23.251c0.247,5.312 0.37,10.663 0.37,16.047c0,39.27 -6.547,76.739 -18.459,110.907c-11.496,32.976 -29.746,86.928 -70.778,113.009c-17.569,11.166 -37.232,12.835 -55.466,12.87c-18.234,0.038 -35.709,-1.451 -50.261,0.516c-9.307,1.258 -18.756,3.274 -28.373,5.361c-38.74,9.276 -71.724,-1.537 6.61,-15.123c6.591,-1.342 13.218,-2.584 19.977,-3.497c33.36,-4.509 71.933,6.636 100.343,-11.421c35.054,-22.281 53.903,-73.374 65.316,-106.112c11.413,-32.737 17.725,-68.734 17.725,-106.515c-0,-37.781 -6.312,-73.773 -17.725,-106.51c-11.413,-32.738 -27.928,-62.222 -48.335,-86.981c-40.815,-49.519 -97.2,-80.146 -159.481,-80.146l-0,-0.007Z" style="fill:#0064a5;fill-rule:nonzero;"/>
    </g>
</svg>
