<?xml version="1.0" encoding="UTF-8" standalone="no"?>
<!DOCTYPE svg PUBLIC "-//W3C//DTD SVG 1.1//EN" "http://www.w3.org/Graphics/SVG/1.1/DTD/svg11.dtd">
<svg width="100%" height="100%" viewBox="0 0 8334 8334" version="1.1" xmlns="http://www.w3.org/2000/svg" xmlns:xlink="http://www.w3.org/1999/xlink" xml:space="preserve" xmlns:serif="http://www.serif.com/" style="fill-rule:evenodd;clip-rule:evenodd;stroke-linejoin:round;stroke-miterlimit:2;">
    <g transform="matrix(4.16667,0,0,4.16667,0,0)">
        <g id="elephant" transform="matrix(9.55738,0,0,9.55738,-1399.81,893.894)">
            <path id="path1623" d="M244.621,-46.8C238.649,-46.8 233.195,-44.108 229.039,-39.67C224.27,-34.932 223.659,-35.995 218.83,-36.037C202.103,-36.037 188.542,-22.418 188.542,-5.617C188.555,1.164 190.823,7.71 194.928,13.008C197.05,15.74 197.071,15.746 193.87,16.385C192.605,16.638 191.236,16.925 189.803,17.207C183.37,18.468 177.459,17.011 177.416,19.151C177.378,21.084 180.83,24.568 191.296,24.815C193.928,24.962 194.727,24.107 193.311,26.66C180.489,49.694 159.036,28.081 162.255,2.348C162.66,-0.113 163.969,0.482 164.74,-1.752C165.88,-5.304 158.734,-4.318 158.734,-4.318C158.734,-4.318 153.652,-9.542 150.691,-6.654C148.654,-4.669 149.835,-1.39 149.835,-1.39C149.209,65.914 199.757,61.545 216.225,25.556C216.568,24.87 216.575,24.692 217.236,24.739C217.655,24.767 218.075,24.786 218.495,24.796C219.171,24.812 219.142,24.808 219.194,25.539L221.798,62.501C222.044,65.997 224.404,68.829 227.641,68.829L239.158,68.829C242.395,68.829 245.002,66.007 245.002,62.501L245.002,56.904C244.981,50.404 245.242,49.996 245.692,56.391L246.084,61.943C246.33,65.439 248.69,68.271 251.927,68.271L263.444,68.271C266.681,68.271 269.352,65.448 269.288,61.943L269.008,46.712C269.045,44.077 268.52,44.232 270.49,44.284C270.907,44.274 271.323,44.264 271.74,44.253C273.736,44.181 273.428,43.91 273.574,45.986L274.146,61.843C274.272,65.345 276.752,68.171 279.989,68.171L291.506,68.171C294.743,68.171 297.35,65.349 297.35,61.843L297.35,56.107C297.317,49.998 297.887,50.873 298.571,56.812L299.276,62.935C299.677,66.417 302.161,69.142 305.395,68.998L316.9,68.487C320.134,68.344 322.613,65.409 322.458,61.906L321.531,41.036C321.112,33.806 321.78,29.311 322.977,23.554C323.486,21.085 323.93,18.425 324.261,15.309C326.844,17.074 328.789,18.248 330.482,19.069C334.401,21.296 333.63,22.461 335.383,25.182C339.602,31.69 347.159,31.959 350.896,31.639C354.237,31.378 352.131,30.739 350.898,29.806C349.3,28.521 347.239,26.442 346.136,23.651C345.478,21.986 343.787,18.863 340.877,17.199C338.321,15.834 337.18,16.866 334.379,14.577C332.703,13.205 330.836,11.583 329.131,9.634C324.293,4.722 322.586,-2.141 318.256,-7.671C307.143,-20.775 291.117,-22.275 274.81,-22.289C273.922,-22.29 273.035,-22.286 272.147,-22.28C268.907,-22.239 269.441,-22.742 269.579,-19.847C269.605,-19.291 269.618,-18.731 269.618,-18.168C269.618,-14.059 268.933,-10.138 267.687,-6.563C266.484,-3.113 264.574,2.532 260.281,5.261C258.443,6.429 256.386,6.604 254.478,6.607C252.57,6.611 250.741,6.456 249.219,6.661C248.245,6.793 247.256,7.004 246.25,7.222C242.197,8.193 238.746,7.061 246.942,5.64C247.631,5.5 248.325,5.37 249.032,5.274C252.523,4.802 256.558,5.968 259.531,4.079C263.199,1.748 265.171,-3.598 266.365,-7.023C267.559,-10.449 268.22,-14.215 268.22,-18.168C268.22,-22.121 267.559,-25.887 266.365,-29.313C265.171,-32.738 263.443,-35.823 261.308,-38.413C257.037,-43.595 251.138,-46.799 244.621,-46.799L244.621,-46.8Z" style="fill:rgb(0,100,165);fill-rule:nonzero;"/>
        </g>
    </g>
</svg>
