<?xml version="1.0" encoding="UTF-8" standalone="no"?>
<!-- Created with Inkscape (http://www.inkscape.org/) -->
<svg
   xmlns="http://www.w3.org/2000/svg"
   width="2000"
   height="2000"
   viewBox="0 0 529.16665 529.16668"
   version="1.1"
   id="svg8">
   <defs
      id="defs2">
      <clipPath
         id="clipPath1091"
         clipPathUnits="userSpaceOnUse">
         <path
            id="path1089"
            d="M 0,298 H 285.817 V 0 H 0 Z" />
      </clipPath>
   </defs>
   <g
      id="elephant"
      transform="translate(0,232.16668)">
      <path
         id="path1623"
         d="m 244.62104,-46.799987 c -5.97203,0 -11.42571,2.691824 -15.58226,7.12976 -4.76829,4.737796 -5.3799,3.675721 -10.20835,3.633332 -16.72756,-2e-5 -30.28798,13.619189 -30.28812,30.4194247 0.0129,6.7817635 2.2803,13.3275592 6.38568,18.6252203 2.12212,2.732253 2.14308,2.7383 -1.05757,3.377337 -1.26579,0.253287 -2.634,0.540384 -4.06696,0.821434 -6.43311,1.261756 -12.34437,-0.195948 -12.38712,1.944659 -0.0386,1.932407 3.41355,5.416642 13.87934,5.663507 2.63228,0.146932 3.43153,-0.707485 2.01489,1.845414 -12.82164,23.034122 -34.27481,1.420772 -31.05559,-24.3121318 0.40515,-2.46060842 1.71432,-1.86608676 2.48516,-4.0995121 1.1396,-3.5521603 -6.00603,-2.5660871 -6.00603,-2.5660871 0,0 -5.08198,-5.2238842 -8.0433,-2.3365552 -2.03637,1.9854815 -0.85553,5.2644953 -0.85553,5.2644953 -0.62649,67.3038509 49.92173,62.9351689 66.38937,26.9458989 0.34337,-0.686557 0.35054,-0.86459 1.01177,-0.817356 0.41893,0.02777 0.83837,0.04668 1.25811,0.05702 0.6762,0.01605 0.64781,0.01241 0.69929,0.743049 l 2.60374,36.962384 c 0.24625,3.495727 2.60607,6.328178 5.84366,6.328178 h 11.51633 c 3.2376,0 5.84418,-2.822296 5.84418,-6.328178 v -5.59683 c -0.0204,-6.500649 0.24023,-6.908013 0.69063,-0.513522 l 0.39138,5.552043 c 0.24625,3.495726 2.60607,6.328178 5.84366,6.328178 h 11.51633 c 3.23759,0 5.90842,-2.822888 5.84418,-6.328178 l -0.27942,-15.231091 c 0.0362,-2.634869 -0.48815,-2.479898 1.48153,-2.427652 0.41685,-0.0098 0.83339,-0.02014 1.25047,-0.03155 1.99537,-0.0718 1.68749,-0.342219 1.83371,1.733454 l 0.57155,15.85709 c 0.12614,3.502118 2.60609,6.328186 5.84367,6.328178 h 11.51632 c 3.23761,0 5.84417,-2.822286 5.84417,-6.328178 v -5.736279 c -0.0333,-6.109395 0.53689,-5.233775 1.22095,0.704885 l 0.7054,6.123583 c 0.40103,3.481367 2.88457,6.206601 6.119,6.063017 l 11.50462,-0.510975 c 3.23443,-0.143584 5.71314,-3.078677 5.55765,-6.581122 l -0.92628,-20.870163 c -0.41901,-7.230039 0.2492,-11.725502 1.44591,-17.482138 0.50905,-2.469246 0.95332,-5.129387 1.28405,-8.24485 2.58309,1.764311 4.52756,2.939064 6.22029,3.759553 3.91914,2.227186 3.14831,3.392258 4.90111,6.11289 4.21923,6.508091 11.77618,6.777622 15.51304,6.456942 3.34108,-0.260151 1.23489,-0.899259 0.002,-1.832189 -1.59732,-1.285156 -3.6587,-3.36412 -4.76166,-6.155642 -0.65769,-1.664584 -2.34934,-4.788034 -5.2594,-6.451348 -2.55543,-1.365826 -3.69639,-0.333208 -6.49715,-2.622578 -1.67607,-1.3721 -3.54319,-2.993833 -5.2482,-4.9428352 C 324.2931,4.7224337 322.5855,-2.1414182 318.25618,-7.6705113 307.14349,-20.775122 291.1173,-22.274909 274.81039,-22.289347 c -0.88793,-9.85e-4 -1.77551,0.003 -2.66329,0.0098 -3.24055,0.04097 -2.70573,-0.462166 -2.56761,2.432747 0.0258,0.555758 0.0387,1.115701 0.0387,1.678993 0,4.108863 -0.68508,8.029322 -1.93143,11.6043801 -1.20284,3.4503059 -3.1123,9.095401 -7.40561,11.8242267 -1.8382,1.1683711 -3.89561,1.342997 -5.80347,1.3466607 -1.90783,0.00394 -3.73623,-0.151846 -5.25888,0.05397 -0.97376,0.1315972 -1.96237,0.3425251 -2.96866,0.5608493 -4.05337,0.9706503 -7.50455,-0.1608083 0.69165,-1.5822988 0.68957,-0.1404117 1.38295,-0.2703445 2.09022,-0.3659254 3.49051,-0.4717094 7.52636,0.6943966 10.49896,-1.1949919 3.66773,-2.3312173 5.63992,-7.6771902 6.83407,-11.1025593 1.19415,-3.4253584 1.85458,-7.1916874 1.85458,-11.1447944 0,-3.953117 -0.66043,-7.718934 -1.85458,-11.144293 -1.19415,-3.425356 -2.92211,-6.510298 -5.05736,-9.100889 -4.27048,-5.18119 -10.17011,-8.385832 -16.68666,-8.385832 z"
         style="opacity:1;fill:#1a1a1a;fill-opacity:1;stroke:none;stroke-width:0.26057801px;stroke-linecap:butt;stroke-linejoin:miter;stroke-opacity:1" />
   </g>
</svg>
